<?xml version="1.0" encoding="UTF-8" standalone="no"?>
<!DOCTYPE svg PUBLIC "-//W3C//DTD SVG 1.1//EN" "http://www.w3.org/Graphics/SVG/1.1/DTD/svg11.dtd">
<svg width="100%" height="100%" viewBox="0 0 2208 1264" version="1.1" xmlns="http://www.w3.org/2000/svg" xmlns:xlink="http://www.w3.org/1999/xlink" xml:space="preserve" xmlns:serif="http://www.serif.com/" style="fill-rule:evenodd;clip-rule:evenodd;stroke-linejoin:round;stroke-miterlimit:2;">
    <g transform="matrix(1,0,0,1,-45.8471,-58.3619)">
        <g transform="matrix(4.16667,0,0,4.16667,0,0)">
            <g transform="matrix(1,0,0,1,-63.9987,-244.244)">
                <path d="M309.614,339.593L306.269,315.548C304.02,299.389 315.657,286.168 332.131,286.168L332.132,286.168C348.604,286.168 363.921,299.389 366.17,315.548L369.516,339.593C371.765,355.754 360.127,368.974 343.653,368.974L343.652,368.974C327.18,368.974 311.862,355.754 309.614,339.593Z" style="fill:rgb(77,69,66);"/>
                <path d="M361.121,346.19L364.743,302.619C366.104,286.261 380.693,272.874 397.167,272.874C413.641,272.874 426.004,286.261 424.644,302.619L421.021,346.19C419.661,362.55 405.071,375.935 388.598,375.935L388.597,375.935C372.124,375.935 359.759,362.55 361.121,346.19Z" style="fill:rgb(77,69,66);"/>
                <path d="M326.963,411.85C334.896,396.783 353.544,390.998 368.612,398.933C383.68,406.867 389.463,425.515 381.529,440.583L328.379,541.159C322.089,553.106 309.066,559.211 296.432,557.281L202.65,548.463C185.714,546.929 173.229,531.958 174.761,515.021C176.295,498.087 191.268,485.601 208.203,487.134L283.44,494.208L326.963,411.85Z" style="fill:rgb(246,178,144);"/>
                <path d="M374.887,386.968L435.455,386.968C463.297,386.968 488.315,409.745 491.053,437.587L502.154,550.506L340.346,550.506L329.244,437.587C326.507,409.745 347.046,386.968 374.887,386.968Z" style="fill:rgb(220,108,39);"/>
                <path d="M359.779,278.215C386.038,278.215 407.522,299.698 407.522,325.956L407.522,346.553C407.522,372.812 386.038,394.295 359.779,394.295C333.52,394.295 312.035,372.812 312.035,346.553L312.035,325.956C312.035,299.698 333.52,278.215 359.779,278.215Z" style="fill:rgb(246,178,144);"/>
                <path d="M363.57,329.112L363.571,329.112C376.286,324.164 390.738,330.518 395.687,343.234L411.303,383.366C416.251,396.083 409.896,410.533 397.181,415.481L397.18,415.482C384.465,420.429 370.014,414.076 365.064,401.359L349.448,361.227C344.5,348.512 350.854,334.06 363.57,329.112Z" style="fill:rgb(246,178,144);"/>
                <path d="M431.729,442.876C422.528,428.542 426.688,409.462 441.024,400.261C455.358,391.061 474.439,395.222 483.64,409.557L548.237,510.132C557.438,524.467 553.278,543.549 538.943,552.747C532.367,556.97 524.793,558.378 517.633,557.281L423.836,548.463C406.9,546.929 394.416,531.958 395.948,515.021C397.481,498.087 412.455,485.601 429.39,487.134L462.133,490.212L431.729,442.876Z" style="fill:rgb(246,178,144);"/>
                <path d="M84.405,542.737L595.465,542.737C600.638,542.737 604.868,546.969 604.868,552.143C604.868,557.313 600.638,561.543 595.465,561.543L84.405,561.543C79.233,561.543 75.002,557.313 75.002,552.143C75.002,546.969 79.233,542.737 84.405,542.737Z" style="fill:rgb(77,69,66);"/>
                <path d="M128.976,370.921L352.12,370.921C357.766,370.921 363.224,375.54 364.25,381.186L387.13,507.022C388.157,512.667 384.377,517.287 378.731,517.287L155.588,517.287C149.942,517.287 144.484,512.667 143.458,507.022L120.577,381.186C119.552,375.54 123.331,370.921 128.976,370.921Z" style="fill:rgb(77,69,66);"/>
                <path d="M186.171,538.137L279.419,538.137L288.484,488.285C289.1,484.899 286.833,482.126 283.445,482.126L202.513,482.126C199.125,482.126 195.851,484.899 195.234,488.285L186.171,538.137Z" style="fill:rgb(214,203,199);"/>
                <path d="M171.082,535.277L300.277,535.277C303.425,535.277 306,537.853 306,541.001C306,544.149 303.425,546.726 300.277,546.726L171.082,546.726C167.933,546.726 165.357,544.149 165.357,541.001C165.357,537.853 167.933,535.277 171.082,535.277Z" style="fill:rgb(77,69,66);"/>
                <path d="M288.484,488.285L289.861,517.287L283.211,517.287L288.484,488.285Z" style="fill:rgb(49,40,37);"/>
                <path d="M348.124,259.099L382.699,267.516C398.705,271.414 408.612,287.697 404.714,303.704C400.818,319.71 384.533,329.615 368.528,325.719L333.954,317.3C317.948,313.402 308.041,297.119 311.938,281.114L311.938,281.113C315.836,265.108 332.119,255.202 348.124,259.099Z" style="fill:rgb(77,69,66);"/>
                <path d="M389.204,338.99L389.204,298.534C389.204,290.717 395.599,284.322 403.416,284.322C411.233,284.322 417.628,290.717 417.628,298.534L417.628,338.99C417.628,346.807 411.233,353.202 403.416,353.202C395.599,353.202 389.204,346.807 389.204,338.99Z" style="fill:rgb(77,69,66);"/>
                <path d="M382.278,354.929L385.28,343.392C387.187,336.072 395.141,330.081 402.957,330.081L402.959,330.081C410.775,330.081 415.612,336.072 413.706,343.392L410.703,354.929C408.798,362.249 400.844,368.238 393.027,368.238L393.026,368.238C385.208,368.238 380.373,362.249 382.278,354.929Z" style="fill:rgb(246,178,144);"/>
                <path d="M468.44,424.423L468.441,424.423C477.573,422.935 489.549,428.652 495.056,437.129L520.133,475.732C525.642,484.207 522.677,492.36 513.544,493.85L513.543,493.85C504.411,495.337 492.435,489.62 486.929,481.144L461.851,442.542C456.344,434.065 459.309,425.912 468.44,424.423Z" style="fill:rgb(251,196,167);"/>
                <path d="M322.066,359.787C325.22,359.787 327.79,356.114 327.79,351.611C327.79,347.108 325.22,343.433 322.066,343.433C318.913,343.433 316.342,347.108 316.342,351.611C316.342,356.114 318.913,359.787 322.066,359.787Z" style="fill:rgb(77,69,66);"/>
                <path d="M356.309,359.787C360.981,359.787 364.791,356.114 364.791,351.611C364.791,347.108 360.981,343.433 356.309,343.433C351.635,343.433 347.824,347.108 347.824,351.611C347.824,356.114 351.635,359.787 356.309,359.787Z" style="fill:rgb(77,69,66);"/>
                <path d="M236.811,431.236C243.811,431.236 250.043,436.681 250.73,443.399C251.419,450.117 246.302,455.562 239.302,455.562C232.302,455.562 226.07,450.117 225.381,443.399C224.694,436.681 229.811,431.236 236.811,431.236Z" style="fill:rgb(181,167,164);"/>
            </g>
        </g>
    </g>
</svg>
